<svg width="187" height="147" viewBox="0 0 187 147" fill="none" xmlns="http://www.w3.org/2000/svg">
<path d="M100.394 127.851H87.2712C80.8655 127.414 74.8966 124.398 68.7752 122.568C60.9831 119.844 52.5601 117.729 44.8997 114.734C43.6241 114.235 42.6882 113.688 42.5496 112.169C42.4733 111.4 42.6466 110.568 42.6605 109.764C42.8269 93.8191 42.5496 77.8605 42.6605 61.9158C43.3745 61.9088 43.6449 61.5969 44.3312 62.0405C45.0176 62.4842 45.898 63.6489 46.1545 64.4253V111.393C46.2307 111.878 46.411 112.391 46.82 112.696C47.3399 112.946 48.0124 113.299 48.5323 113.501C48.7888 113.598 49.0661 113.577 49.2186 113.632C56.8791 116.35 64.9416 118.554 72.7268 120.96C76.4149 122.097 80.1029 123.199 83.6593 124.565C83.8742 124.648 84.0683 124.849 84.3664 124.787H103.285C103.757 124.835 104.069 124.523 104.429 124.343C105.85 123.643 107.389 123.296 108.914 122.811C118.613 119.74 128.942 117.126 138.433 113.625C139.057 113.397 140.208 113.078 140.721 112.682C141.13 112.371 141.407 111.892 141.497 111.386V25.4924C141.691 24.4872 140.374 23.0036 139.528 22.6501C141.442 20.6951 144.651 21.735 144.991 24.4525C145.22 52.848 144.686 81.2505 144.998 109.646C145.005 110.284 145.047 110.492 145.095 111.074C145.268 113.112 144.506 114.076 142.676 114.762C130.232 119.386 117.157 122.832 104.658 127.366C103.32 127.469 102.01 127.802 100.651 127.74L100.387 127.851H100.394Z" fill="#191C36"/>
<path d="M120.291 4.27903C120.575 5.64473 119.48 6.4489 118.766 7.39866C113.171 14.8234 107.674 22.3174 102.079 29.749L97.0044 36.4874L110.308 30.7681C113.809 29.1736 117.317 27.593 120.838 26.0471C123.459 24.8963 126.072 23.7108 128.714 22.6016C129.733 22.1788 133.123 20.5704 133.92 20.4734C135.528 20.2792 136.707 21.9084 136.152 23.4197C130.683 25.5618 125.234 27.8565 119.757 29.9847C117.109 31.0177 114.405 31.9397 111.75 32.9657C108.187 34.3453 104.637 35.7734 101.088 37.1807C100.422 37.0698 99.7636 37.0906 99.0981 37.0906C95.5625 37.1044 92.0269 37.1114 88.4913 37.0906C87.8674 37.0906 87.2504 37.0906 86.6334 37.153C80.4427 34.6573 74.1619 32.3903 67.9365 29.9778C64.4356 28.619 60.9485 27.1771 57.4407 25.8252C55.0628 24.9032 52.6988 23.9257 50.3348 22.9829C49.7941 21.9222 50.0367 20.4872 51.1806 19.9534C52.1165 19.5167 52.5047 19.7662 53.3851 20.0921C57.1842 21.4924 61.2397 23.3365 64.9763 24.9518C72.5743 28.2516 80.2417 31.6901 87.8258 35.0663C88.3873 35.3158 88.9766 35.5723 89.5728 35.7249L65.0872 17.6241C65.42 16.2307 67.0352 15.7939 68.186 16.5496L93.9541 35.7734C94.5018 34.8306 95.098 33.8877 95.7219 33.0073C102.544 23.3781 109.448 13.7835 116.305 4.16811C116.686 3.78682 117.296 3.50952 117.844 3.50952C118.211 3.50952 119.209 3.64817 119.563 3.76602C119.882 3.87694 120.076 4.04332 120.305 4.28596H120.312L120.291 4.27903Z" fill="#B0BBD4"/>
<path d="M120.838 26.0402C117.317 27.5792 113.809 29.1667 110.308 30.7612L97.0044 36.4805L102.079 29.7421C107.674 22.3174 113.171 14.8164 118.766 7.39172C119.48 6.44197 120.575 5.6378 120.291 4.27209C120.485 4.48007 120.63 4.70191 120.755 4.95841L120.838 26.0332V26.0402Z" fill="#8492B5"/>
<path d="M48.1371 22.6501C46.9239 23.0453 46.2307 24.2931 46.1683 25.4924C45.6969 34.6919 46.4248 44.328 46.1683 53.5968C46.1059 55.7181 46.3416 57.3334 44.8581 59.0042C43.9707 60.0094 43.936 59.7737 42.6743 59.8222L42.6882 24.2377C43.1319 21.6588 46.3485 20.7575 48.1441 22.6432L48.1371 22.6501Z" fill="#191C36"/>
<path d="M139.535 22.6502C140.381 23.0037 141.698 24.4873 141.504 25.4925C141.275 25.4856 141.213 25.749 141.151 25.7906C140.956 25.9223 138.676 26.6918 138.114 26.9137C133.199 28.8409 128.249 30.678 123.355 32.6538C123.071 32.7162 122.773 32.7994 122.481 32.8202C120.811 32.9311 119.584 31.6555 119.75 29.9778C125.227 27.8496 130.683 25.5549 136.145 23.4128C136.998 23.08 138.724 22.3036 139.535 22.6432V22.6502Z" fill="#DBB750"/>
<path d="M93.136 9.67943C93.3093 9.81809 93.3579 10.0122 93.6767 10.0677C94.7721 10.2479 97.6976 9.42293 97.4203 11.3016C97.2262 12.6465 94.6681 12.0919 93.6906 12.2791C92.7963 13.007 91.7634 14.2341 91.5623 15.4057C91.4098 16.3208 92.214 18.7194 90.9107 19.0106C90.3977 19.1284 89.7114 19.0591 89.5172 18.4837C89.2538 17.6934 89.5172 16.0851 89.2954 15.2046C89.129 14.5461 87.6663 12.605 86.9938 12.4802C85.8638 12.2722 82.6541 13.2497 83.3889 10.9412C83.6801 10.0261 86.1688 10.4767 86.973 10.2618C87.5831 10.1231 89.0181 7.93938 89.1221 7.27386C89.2815 6.26864 88.4774 3.82147 89.7529 3.53031C92.0407 3.00344 91.0771 6.06067 91.3474 7.25306C91.5069 7.96711 92.5467 9.22882 93.1291 9.67943H93.136Z" fill="#F6F9F9"/>
<path d="M52.8374 59.4964C52.9414 59.4826 53.0731 59.5172 53.1633 59.4964L53.3851 59.6073C53.3851 59.6073 53.8981 60.1342 53.9328 60.155L54.0437 60.3769C54.0298 60.46 54.0298 60.6195 54.0437 60.7027L53.9328 60.9245C53.7802 61.0424 53.6208 61.2781 53.3851 61.4722C53.1494 61.3613 52.8166 61.5692 52.7265 61.5831C51.8946 61.6663 51.0696 61.3751 50.3209 61.805C50.2932 61.8188 50.1961 61.7842 50.1338 61.8396C50.0436 61.9159 49.4405 62.6091 49.3365 62.7408C48.9552 63.24 48.3937 64.1897 48.3452 64.8206C48.2966 65.493 48.7334 67.4411 48.2412 67.9333C48.1788 67.9957 47.5618 68.1621 47.4231 68.1621C47.0835 68.1621 46.8963 67.9887 46.6051 67.9333C46.1337 66.9627 46.5566 65.6317 46.1684 64.4324C45.9119 63.649 45.0453 62.4913 44.3451 62.0476C43.6449 61.6039 43.3815 61.9089 42.6744 61.9228C41.6206 61.9367 40.4282 62.2209 40.4768 60.772C40.5184 59.5242 41.794 59.8777 42.6744 59.8431C43.9361 59.7945 43.9708 60.0233 44.8581 59.025C46.3417 57.3474 46.1129 55.739 46.1684 53.6177C46.9864 52.9729 48.0124 53.2086 48.1372 54.3317C48.2342 55.1913 47.9985 56.0995 48.2412 56.9661C48.4561 57.7286 49.7941 59.545 50.5913 59.642C51.3053 59.7252 52.1511 59.6212 52.8374 59.5311V59.5172V59.4964Z" fill="#F6F9F9"/>
<path d="M50.3208 22.976C52.6848 23.9188 55.0418 24.9032 57.4266 25.8183C57.5029 27.0038 56.671 28.2378 55.5202 28.5567C55.1389 28.6606 54.7853 28.5983 54.4734 28.7716C52.8927 28.1546 51.2289 27.6416 49.6622 27.0176C48.9551 26.7403 47.0902 26.0818 46.5218 25.7698C46.4732 25.7421 46.3693 25.4717 46.1682 25.4856C46.2306 24.2862 46.9239 23.0384 48.137 22.6432C48.9551 22.3798 49.5651 22.664 50.3277 22.9691L50.3208 22.976Z" fill="#F1DB81"/>
<path d="M127.778 7.07279C126.974 6.27555 127.216 6.56671 126.253 6.58058C125.58 6.58751 124.603 6.79549 124.464 5.94972C124.235 4.51469 126.343 5.14555 127.098 4.91678C127.521 4.79199 128.478 3.32923 128.568 2.89249C128.714 2.18537 128.284 0.417583 128.963 0.119485C130.572 -0.580698 130.093 1.99126 130.26 2.78157C130.364 3.30844 131.438 4.688 131.951 4.80586C132.651 4.9653 134.904 4.175 134.585 5.73481C134.378 6.75389 132.624 6.17849 131.951 6.38647C131.438 6.53898 130.53 8.00867 130.398 8.54941C130.218 9.27039 130.981 11.0243 129.83 11.2669C128.381 11.565 128.942 9.37438 128.79 8.6326C128.686 8.12653 128.138 7.44714 127.771 7.07972L127.778 7.07279Z" fill="#F6F9F9"/>
<path d="M138.114 26.9136C137.865 27.4959 137.317 27.898 137.345 28.6051C137.587 54.4772 137.268 80.384 137.684 106.242C137.712 108.079 137.456 110.63 137.684 112.364C137.747 112.807 138.038 113.403 138.44 113.632C128.949 117.133 118.613 119.74 108.921 122.818L106.412 39.1633C111.542 37.1459 116.935 34.7889 122.135 33.0696C122.315 33.0072 122.551 33.1528 122.481 32.8201C122.773 32.7993 123.064 32.7091 123.355 32.6537C128.249 30.6779 133.199 28.8408 138.114 26.9136Z" fill="#2A2C56"/>
<path d="M104.443 124.343C104.082 124.523 103.77 124.828 103.299 124.787H84.3802C84.0821 124.849 83.888 124.648 83.6731 124.565C83.6939 123.934 83.6384 123.282 83.6731 122.645C84.0544 113.189 84.4287 103.733 84.7753 94.2698C86.7303 95.4691 89.1844 95.7533 91.4444 95.9128C93.2677 96.0376 95.077 96.0792 96.9142 95.9128C98.3977 95.7741 100.734 95.379 102.079 94.7967C102.751 94.5055 103.313 93.9925 102.98 93.1814C102.523 92.0999 100.817 93.0635 99.9991 93.2576C99.0078 93.4934 97.9263 93.7083 96.9142 93.84C96.3457 93.9162 95.292 94.0618 94.7789 94.0618H92.8101C92.7755 94.0618 92.6299 93.9578 92.4843 93.9509C92.1446 93.9301 91.7702 93.9925 91.4375 93.9509C90.2312 93.8261 88.8863 93.5419 87.7009 93.2646C86.7026 93.0289 85.5587 92.197 84.7753 93.0774C84.9279 90.6649 85.0318 88.2177 85.1081 85.8052C85.1428 84.7861 84.9279 83.6215 85.323 82.6856C85.6558 84.5158 87.3473 85.3685 88.9834 85.9716C89.947 86.3251 90.4808 86.3598 91.4444 86.5123C93.7321 86.8936 94.6264 86.8728 96.9142 86.4014C98.3838 86.1033 101.732 85.0773 102.224 83.4551C102.765 81.6804 102.398 79.7393 102.377 77.9299C102.328 73.2296 102.405 68.5571 102.224 63.8638C101.434 62.4773 100.29 63.5935 99.396 64.0025C98.6126 64.356 97.7669 64.6957 96.9142 64.8621C96.5467 64.9384 95.6524 65.084 95.3266 65.084H92.3734C92.2624 65.084 91.6316 65.0008 91.4444 64.973C90.869 64.8968 89.8014 64.6749 89.2607 64.4808C88.3525 64.1619 86.8551 62.7546 85.8707 63.33L86.6402 42.3315C89.2607 44.5222 92.2833 45.4996 95.7148 44.9589C98.2452 44.5568 100.165 43.0525 101.947 41.354L104.457 124.35H104.45L104.443 124.343Z" fill="#2A2C56"/>
<path d="M75.6869 36.9727C78.5084 38.0749 82.2312 39.2257 84.8378 40.5637C85.2815 40.7925 85.3508 41.049 85.7529 41.2361C85.9747 41.763 86.252 42.0126 86.6264 42.3315L85.8569 63.33C85.6697 63.441 85.4479 63.9124 85.4201 64.1481C85.2537 65.5207 85.4548 67.4063 85.4271 68.8622C85.3647 72.0234 85.3508 75.1985 85.3161 78.3736C85.2953 79.8225 85.0458 81.209 85.3161 82.6856C84.921 83.6215 85.1359 84.7931 85.1012 85.8052C85.025 88.2108 84.921 90.6649 84.7685 93.0774C84.7338 93.5627 84.7823 93.8954 84.7685 94.2837C84.4288 103.747 84.0544 113.202 83.6662 122.658C83.6385 123.296 83.6939 123.941 83.6662 124.579C80.1098 123.213 76.4217 122.111 72.7336 120.974C72.7544 120.343 75.6869 36.9865 75.6869 36.9865V36.9727Z" fill="#191C36"/>
<path d="M106.405 39.1633L108.914 122.818C107.389 123.303 105.85 123.65 104.429 124.35L101.919 41.354C102.169 41.1183 102.204 40.8549 102.564 40.64C103.452 40.1131 105.344 39.5862 106.398 39.1703L106.405 39.1633Z" fill="#191C36"/>
<path d="M138.447 113.632C138.038 113.41 137.754 112.814 137.691 112.364C137.456 110.637 137.712 108.079 137.691 106.242C137.282 80.384 137.594 54.4772 137.352 28.6051C137.324 27.905 137.878 27.4959 138.121 26.9136C138.69 26.6918 140.963 25.9223 141.158 25.7905C141.22 25.7489 141.282 25.4855 141.511 25.4924V111.393C141.421 111.899 141.144 112.384 140.735 112.689C140.222 113.085 139.071 113.404 138.447 113.632Z" fill="#4D559D"/>
<path d="M50.099 62.5605C50.099 62.5605 50.0921 111.449 49.8772 112.585C49.8356 112.8 49.4543 113.514 49.2255 113.632C49.073 113.577 48.7957 113.598 48.5392 113.501C48.0193 113.306 47.3468 112.939 46.8269 112.696C46.4248 112.391 46.2376 111.878 46.1614 111.393V67.9263C46.3 67.9471 46.4733 67.9055 46.5981 67.9263C46.8962 68.5433 47.5825 68.5572 48.1233 68.1897C48.2411 68.1066 48.2203 67.9402 48.2342 67.9263C48.2481 67.9124 48.3659 67.9402 48.4144 67.8916C48.872 67.3648 48.6363 67.4688 48.6848 67.0112C48.7403 66.5537 48.8512 66.1308 48.7819 65.6802C48.7403 65.389 48.5254 65.2365 48.5462 64.9245C48.5808 64.4185 49.4335 62.5813 50.0852 62.5744L50.099 62.5605Z" fill="#4D559D"/>
<path d="M75.687 36.9727C72.3733 35.6763 68.9001 34.1789 65.5379 33.0627C65.3576 33.0003 65.1219 33.1459 65.1912 32.8132C64.9417 32.7993 64.706 32.827 64.4772 32.7092C61.1219 31.4474 57.8081 30.0748 54.4736 28.7715C52.893 28.1476 51.2292 27.6346 49.6624 27.0176L50.1338 28.1337C50.3695 38.4146 50.0922 48.7163 50.0992 59.0041C50.2517 59.8083 52.2413 59.1151 52.8306 59.5033C52.9346 59.4894 53.0663 59.5241 53.1564 59.5033C53.1703 59.5033 53.2951 59.3161 53.3783 59.3924C53.4129 59.427 53.3575 59.5795 53.3783 59.6142C53.399 59.6489 53.8913 60.1411 53.9259 60.1619C53.9606 60.1827 54.1131 60.1272 54.1478 60.1619C54.224 60.2381 54.0368 60.3698 54.0368 60.3837C54.023 60.4669 54.023 60.6264 54.0368 60.7095C54.0368 60.7303 54.2032 60.8066 54.1478 60.9314C54.0854 60.9522 53.9536 60.9106 53.9259 60.9314C53.7734 61.0492 53.614 61.2849 53.3783 61.479C53.3644 61.4929 53.4268 61.6732 53.302 61.7009C53.1287 61.7494 52.8652 61.7148 52.7197 61.59C51.8878 61.6732 51.0628 61.382 50.3141 61.8118V61.9574C49.9883 62.0822 50.113 62.2832 50.0992 62.5744C50.0992 62.5744 49.4475 113.535 49.2188 113.653C56.8861 116.371 64.9417 118.575 72.7269 120.981C72.7269 120.856 73.3855 120.842 73.3855 120.842L75.6801 36.9865L75.687 36.9727Z" fill="#3C407B"/>
<path d="M50.3209 61.7979V61.9435C49.9951 62.0683 50.113 62.2693 50.0991 62.5605C49.4405 62.5674 48.5878 64.4045 48.5601 64.9106C48.5393 65.2226 48.7542 65.3751 48.7958 65.6663C48.8582 66.1169 48.7403 66.5606 48.6987 66.9973C48.6502 67.4341 48.8859 67.3509 48.4284 67.8777C48.3798 67.9263 48.262 67.8985 48.2481 67.9124C48.2273 67.9332 48.2481 68.0926 48.1372 68.1758C47.5965 68.5432 46.9101 68.5363 46.612 67.9124C46.4873 67.8916 46.3139 67.9332 46.1753 67.9124V64.4115C46.5704 65.6039 46.1406 66.9349 46.612 67.9124C46.9101 67.9679 47.0973 68.1412 47.4301 68.1412C47.5687 68.1412 48.1926 67.9748 48.2481 67.9124C48.7403 67.4133 48.3105 65.4652 48.3521 64.7997C48.4006 64.1688 48.9552 63.226 49.3434 62.7199C49.4474 62.5813 50.0436 61.895 50.1407 61.8187C50.2031 61.7633 50.3001 61.8049 50.3279 61.7841H50.3209V61.7979Z" fill="#3C407B"/>
<path d="M119.75 29.9778C119.584 31.6485 120.811 32.938 122.481 32.8201C122.551 33.1459 122.315 33.0073 122.135 33.0697C116.935 34.7959 111.542 37.146 106.412 39.1633C105.358 39.5793 103.466 40.1062 102.578 40.633C102.211 40.8549 102.176 41.1183 101.933 41.3471C100.152 43.0456 98.2315 44.5499 95.7011 44.952C97.1431 43.2605 96.429 41.2154 94.4949 40.3627C96.3389 40.1616 98.4949 38.9276 99.0842 37.0836C99.7566 37.0836 100.415 37.0628 101.074 37.1737C104.623 35.7595 108.173 34.3314 111.736 32.9588C114.391 31.9327 117.095 31.0038 119.743 29.9778H119.75Z" fill="#A06E16"/>
<path d="M88.4775 37.0836C88.4983 37.1945 88.526 37.3193 88.5884 37.4094C86.4463 37.243 84.8795 39.1911 85.7461 41.2361C85.344 41.042 85.2885 40.7925 84.831 40.5637C82.2244 39.2257 78.4947 38.0749 75.6801 36.9727C72.3664 35.6763 68.8932 34.1789 65.5309 33.0627C65.3507 33.0003 65.115 33.1459 65.1843 32.8132C66.8758 32.9033 68.0682 31.6693 67.9157 29.9708C74.1411 32.3833 80.4219 34.6433 86.6126 37.146C87.2296 37.0836 87.8466 37.0766 88.4706 37.0836H88.4775Z" fill="#A06E16"/>
<path d="M67.9224 29.9778C68.075 31.6762 66.8826 32.9102 65.191 32.8201C64.9415 32.8062 64.7058 32.834 64.477 32.7161C61.1217 31.4544 57.8149 30.0818 54.4734 28.7784C54.7854 28.6121 55.1389 28.6675 55.5202 28.5635C56.671 28.2377 57.496 27.0107 57.4266 25.8252C60.9414 27.177 64.4146 28.619 67.9224 29.9778Z" fill="#DBB750"/>
<path d="M99.0843 37.0836C98.4881 38.9346 96.3321 40.1616 94.495 40.3627C91.9022 40.6469 89.9888 39.4476 88.5885 37.4094C88.5261 37.3124 88.5053 37.1945 88.4775 37.0836C92.0131 37.1044 95.5487 37.0975 99.0843 37.0836Z" fill="#B0BBD4"/>
<path d="M64.9762 24.9447C65.1287 22.6986 64.7752 20.2029 64.9693 17.9845C64.9901 17.7696 65.0663 17.7141 65.0871 17.6171L89.5727 35.7178C88.9765 35.5653 88.3873 35.3088 87.8257 35.0592C80.2346 31.6831 72.5742 28.2446 64.9762 24.9447Z" fill="#8492B5"/>
<path d="M46.1684 25.4924C46.3763 25.4716 46.4803 25.7489 46.5219 25.7767C47.0904 26.0886 48.9552 26.7403 49.6623 27.0245L50.1337 28.1407C50.3695 38.4216 50.0921 48.7233 50.0991 59.0111C50.2516 59.8083 52.2412 59.122 52.8305 59.5102C52.1442 59.6004 51.3053 59.7043 50.5844 59.6212C49.7802 59.5241 48.4422 57.7078 48.2342 56.9452C47.9916 56.0856 48.2342 55.1774 48.1303 54.3109C48.0055 53.1947 46.9795 52.9521 46.1614 53.5968C46.4179 44.3281 45.69 34.6919 46.1614 25.4924H46.1684Z" fill="#4D559D"/>
<path d="M53.3781 61.4722C53.3781 61.4722 53.4266 61.6594 53.3018 61.694C53.1285 61.7425 52.8581 61.7079 52.7195 61.5831C52.8027 61.5762 53.1424 61.3682 53.3781 61.4722Z" fill="#3C407B"/>
<path d="M53.9258 60.1549C53.9258 60.1549 54.113 60.1272 54.1476 60.1549C54.2239 60.2312 54.0367 60.3629 54.0367 60.3767L53.9258 60.1549Z" fill="#3C407B"/>
<path d="M53.1633 59.4964C53.1633 59.4964 53.302 59.3092 53.3852 59.3855C53.4198 59.4201 53.3644 59.5726 53.3852 59.6073L53.1633 59.4964Z" fill="#3C407B"/>
<path d="M54.0367 60.7026C54.0367 60.7026 54.2031 60.7997 54.1476 60.9245C54.0852 60.9453 53.9535 60.9037 53.9258 60.9245L54.0367 60.7026Z" fill="#3C407B"/>
<path d="M91.4307 64.9661V86.5123C90.4671 86.3529 89.9333 86.3182 88.9697 85.9716C87.3406 85.3754 85.6421 84.5227 85.3093 82.6856C85.039 81.209 85.2955 79.8155 85.3093 78.3736C85.344 75.1985 85.3579 72.0234 85.4203 68.8622C85.448 67.4133 85.2469 65.5207 85.4133 64.1481C85.4411 63.9124 85.6629 63.441 85.8501 63.3301C86.8276 62.7547 88.3319 64.1619 89.2401 64.4808C89.7808 64.675 90.8484 64.8968 91.4238 64.9731H91.4377L91.4307 64.9661Z" fill="#BE8D2C"/>
<path d="M96.9004 64.8552V86.4014C94.6196 86.8729 93.7253 86.8867 91.4307 86.5124V64.9661C91.6178 64.9939 92.2487 65.0771 92.3596 65.0771H95.3129C95.6387 65.0771 96.533 64.9315 96.9004 64.8552Z" fill="#F1DB81"/>
<path d="M96.9004 86.4014V64.8551C97.7462 64.6888 98.5989 64.3491 99.3822 63.9955C100.283 63.5934 101.413 62.4773 102.211 63.8569C102.391 68.5432 102.315 73.2227 102.363 77.9229C102.384 79.7254 102.751 81.6734 102.211 83.4481C101.718 85.0703 98.3701 86.0963 96.9004 86.3944V86.4014Z" fill="#DBB750"/>
<path d="M88.5884 37.4163C89.9888 39.4544 91.9022 40.6538 94.4949 40.3695C96.4291 41.2292 97.1431 43.2673 95.7012 44.9589C92.2696 45.4996 89.247 44.529 86.6265 42.3314C86.2452 42.0195 85.9749 41.763 85.753 41.2361C84.8934 39.191 86.4532 37.243 88.5954 37.4094L88.5884 37.4163Z" fill="#F1DB81"/>
<path d="M91.4306 93.9439V95.9128C89.1706 95.7602 86.7165 95.4691 84.7615 94.2698C84.7754 93.8885 84.7269 93.5557 84.7615 93.0635C85.5449 92.1831 86.6957 93.015 87.687 93.2507C88.8725 93.5349 90.2174 93.8122 91.4237 93.937L91.4306 93.9439Z" fill="#A06E16"/>
<path d="M96.9004 95.9198V93.84C97.9056 93.7152 98.994 93.4934 99.9854 93.2577C100.803 93.0636 102.509 92.1 102.966 93.1814C103.306 93.9856 102.744 94.5055 102.065 94.7967C100.713 95.379 98.377 95.7742 96.9004 95.9128V95.9198Z" fill="#DBB750"/>
<path d="M96.9004 93.84V95.9197C95.0633 96.0861 93.2608 96.0445 91.4307 95.9197V93.9509C91.7634 93.9856 92.1308 93.9232 92.4775 93.9509C92.6161 93.9578 92.7617 94.0618 92.8033 94.0618H94.7721C95.2782 94.0618 96.3319 93.9162 96.9073 93.84H96.9004Z" fill="#F1DB81"/>
<path d="M186.427 122.568C183.314 119.241 180.271 115.871 177.297 112.468C176.86 111.961 10.1401 111.961 9.69644 112.468C6.71547 115.871 3.6721 119.241 0.566337 122.568C-0.508201 123.719 0.018669 125.598 1.53689 126C5.49535 127.04 9.46767 128.01 13.4539 128.918C12.9824 130.984 12.518 133.05 12.0466 135.116C11.7901 136.239 12.4972 137.362 13.6272 137.612C66.2379 149.258 120.762 149.258 173.373 137.612C174.496 137.362 175.203 136.239 174.953 135.116C174.482 133.05 174.018 130.984 173.546 128.918C177.532 128.01 181.505 127.047 185.463 126C186.981 125.598 187.508 123.719 186.434 122.568H186.427Z" fill="#191C36"/>
<path d="M154.426 95.1849C162.031 93.7498 169.595 92.0514 177.11 90.0756C178.593 89.6874 179.987 90.9699 179.688 92.4812C178.815 96.911 177.858 101.341 176.839 105.771C176.687 106.422 176.86 107.109 177.297 107.608C180.278 111.012 183.321 114.381 186.427 117.709C187.501 118.859 186.975 120.738 185.456 121.14C177.096 123.345 168.673 125.237 160.215 126.825C159.085 127.04 157.99 126.284 157.782 125.147C156.111 115.962 154.44 106.776 152.77 97.5835C152.562 96.4604 153.31 95.3859 154.433 95.171L154.426 95.1849Z" fill="#8492B5"/>
<path d="M26.7781 126.832C18.3135 125.244 9.89748 123.345 1.53689 121.147C0.018669 120.745 -0.508201 118.866 0.566337 117.715C3.67903 114.388 6.7224 111.019 9.69644 107.615C10.1332 107.109 10.3065 106.429 10.154 105.778C9.12798 101.348 8.17822 96.918 7.30473 92.4881C7.00663 90.9838 8.40006 89.6943 9.88362 90.0825C17.3985 92.0583 24.9618 93.7568 32.5668 95.1918C33.6898 95.4067 34.4316 96.4743 34.2306 97.6043C32.5598 106.79 30.8891 115.975 29.2184 125.168C29.0104 126.305 27.922 127.06 26.7851 126.846L26.7781 126.832Z" fill="#8492B5"/>
<path d="M20.726 101.382C68.6573 111.968 118.329 111.968 166.267 101.382C167.383 101.133 168.485 101.833 168.742 102.949C170.808 112.052 172.881 121.161 174.946 130.263C175.203 131.386 174.496 132.509 173.366 132.759C120.755 144.406 66.231 144.406 13.6202 132.759C12.4971 132.509 11.79 131.386 12.0396 130.263C14.1055 121.161 16.1783 112.052 18.2442 102.949C18.5007 101.833 19.603 101.14 20.7191 101.382H20.726Z" fill="#B0BBD4"/>
<path d="M47.4509 131.858L49.503 113.979L53.5307 114.443L52.7474 121.244L59.7007 122.041L60.484 115.241L64.5118 115.705L62.4598 133.584L58.432 133.12L59.2778 125.729L52.3245 124.932L51.4787 132.322L47.4509 131.858Z" fill="#191C36"/>
<path d="M66.1272 133.868L67.2711 115.906L79.3336 116.676L79.1048 120.287L71.0909 119.774L70.8829 123.074L78.5086 123.56L78.2799 127.171L70.6541 126.686L70.4115 130.527L78.4255 131.04L78.1967 134.645L66.1341 133.875L66.1272 133.868Z" fill="#191C36"/>
<path d="M81.5865 134.79L81.843 116.793L87.2642 116.87C90.2729 116.911 92.5953 117.736 94.2245 119.345C95.8536 120.953 96.6509 123.22 96.6093 126.145C96.5677 129.002 95.7219 131.185 94.072 132.683C92.422 134.18 90.058 134.908 86.98 134.866L81.5796 134.79H81.5865ZM85.6906 131.13L86.6195 131.144C87.8396 131.158 88.8864 131.04 89.7599 130.776C90.6334 130.513 91.3059 130 91.7842 129.244C92.2626 128.489 92.5052 127.379 92.526 125.937C92.5468 124.544 92.3388 123.463 91.9159 122.686C91.4931 121.91 90.8691 121.376 90.0511 121.071C89.24 120.766 88.2625 120.606 87.1256 120.592L85.8361 120.572L85.6836 131.13H85.6906Z" fill="#191C36"/>
<path d="M107.119 135.116C105.469 135.185 103.985 134.846 102.668 134.111C101.358 133.369 100.297 132.308 99.5002 130.922C98.7029 129.535 98.2662 127.892 98.1899 126C98.1137 124.107 98.4187 122.443 99.0981 121.001C99.7775 119.56 100.769 118.416 102.058 117.57C103.348 116.724 104.866 116.267 106.606 116.197C108.582 116.114 110.308 116.544 111.778 117.473C113.247 118.402 114.322 119.726 115.015 121.438L111.251 122.963C110.869 122.014 110.294 121.286 109.518 120.773C108.741 120.26 107.826 120.024 106.765 120.073C105.802 120.114 104.97 120.371 104.277 120.849C103.583 121.327 103.057 121.986 102.703 122.825C102.349 123.664 102.197 124.676 102.245 125.84C102.294 127.012 102.53 128.003 102.946 128.821C103.362 129.639 103.944 130.256 104.679 130.679C105.414 131.095 106.259 131.289 107.223 131.248C107.743 131.227 108.263 131.13 108.79 130.963C109.317 130.797 109.802 130.527 110.246 130.152C110.689 129.778 111.036 129.265 111.292 128.6C111.549 127.934 111.66 127.102 111.618 126.104L111.584 125.251L112.603 128.052L107.362 128.267L107.216 124.655L115.14 124.329L115.549 134.312L111.986 134.457L111.313 131.955L112.034 132.496C111.729 133.009 111.334 133.459 110.863 133.847C110.391 134.236 109.837 134.541 109.22 134.756C108.596 134.97 107.902 135.095 107.126 135.123L107.119 135.116Z" fill="#191C36"/>
<path d="M118.904 133.972L117.441 116.031L121.483 115.705L122.946 133.646L118.904 133.972Z" fill="#191C36"/>
<path d="M126.391 133.369L124.325 115.49L136.333 114.104L136.748 117.695L128.769 118.617L129.15 121.903L136.742 121.022L137.158 124.613L129.566 125.494L130.01 129.314L137.989 128.392L138.405 131.983L126.398 133.369H126.391Z" fill="#191C36"/>
</svg>
