<svg width="26" height="26" viewBox="0 0 26 26" fill="none" xmlns="http://www.w3.org/2000/svg">
<path d="M1.0006 13.0001L7.0006 13.0001L7.0006 2.00005C7.0006 1.73484 7.10595 1.48048 7.29349 1.29295C7.48103 1.10541 7.73538 1.00005 8.0006 1.00005L18.0006 1.00005C18.2658 1.00005 18.5202 1.10541 18.7077 1.29295C18.8952 1.48048 19.0006 1.73484 19.0006 2.00005L19.0006 13.0001H25.0006L13.0006 25.0001L1.0006 13.0001Z" fill="#C05B61"/>
<path d="M0.293287 13.7075L12.2933 25.7075C12.3862 25.8005 12.4964 25.8742 12.6178 25.9246C12.7392 25.9749 12.8694 26.0008 13.0008 26.0008C13.1322 26.0008 13.2623 25.9749 13.3837 25.9246C13.5051 25.8742 13.6154 25.8005 13.7083 25.7075L25.7083 13.7075C25.8483 13.5676 25.9437 13.3894 25.9823 13.1953C26.021 13.0012 26.0012 12.8 25.9254 12.6172C25.8497 12.4344 25.7214 12.2781 25.5568 12.1683C25.3922 12.0584 25.1987 11.9998 25.0008 12H20.0008L20.0008 2C20.0008 1.46957 19.7901 0.96086 19.415 0.585787C19.0399 0.210714 18.5312 0 18.0008 0L8.00079 0C7.47035 0 6.96165 0.210714 6.58657 0.585787C6.2115 0.96086 6.00079 1.46957 6.00079 2L6.00079 12L1.00079 12C0.802892 11.9998 0.609399 12.0584 0.444805 12.1683C0.280211 12.2781 0.151919 12.4344 0.0761662 12.6172C0.000413679 12.8 -0.0193919 13.0012 0.0192585 13.1953C0.0579089 13.3894 0.153276 13.5676 0.293287 13.7075ZM7.00079 14C7.266 14 7.52036 13.8946 7.7079 13.7071C7.89543 13.5196 8.00079 13.2652 8.00079 13L8.00079 2L18.0008 2L18.0008 13C18.0008 13.2652 18.1061 13.5196 18.2937 13.7071C18.4812 13.8946 18.7356 14 19.0008 14H22.587L13.0008 23.5862L3.41454 14L7.00079 14Z" fill="#E1ABAE"/>
</svg>
