<svg width="26" height="26" viewBox="0 0 26 26" fill="none" xmlns="http://www.w3.org/2000/svg">
<path d="M25.001 13.0007H19.001V24.0007C19.001 24.2659 18.8956 24.5203 18.7081 24.7078C18.5205 24.8954 18.2662 25.0007 18.001 25.0007H8.00098C7.73576 25.0007 7.48141 24.8954 7.29387 24.7078C7.10633 24.5203 7.00098 24.2659 7.00098 24.0007V13.0007H1.00098L13.001 1.00073L25.001 13.0007Z" fill="#298C53"/>
<path d="M25.7083 12.2933L13.7083 0.293287C13.6154 0.20031 13.5051 0.126551 13.3837 0.0762268C13.2623 0.0259025 13.1322 0 13.0008 0C12.8694 0 12.7392 0.0259025 12.6178 0.0762268C12.4964 0.126551 12.3862 0.20031 12.2933 0.293287L0.293288 12.2933C0.153276 12.4331 0.0579087 12.6114 0.0192583 12.8055C-0.0193921 12.9996 0.000412494 13.2008 0.076165 13.3836C0.151917 13.5664 0.280212 13.7226 0.444805 13.8325C0.609399 13.9424 0.802892 14.0009 1.00079 14.0008H6.00079V24.0008C6.00079 24.5312 6.2115 25.0399 6.58657 25.415C6.96165 25.7901 7.47035 26.0008 8.00079 26.0008H18.0008C18.5312 26.0008 19.0399 25.7901 19.415 25.415C19.7901 25.0399 20.0008 24.5312 20.0008 24.0008V14.0008H25.0008C25.1987 14.0009 25.3922 13.9424 25.5568 13.8325C25.7214 13.7226 25.8497 13.5664 25.9254 13.3836C26.0012 13.2008 26.021 12.9996 25.9823 12.8055C25.9437 12.6114 25.8483 12.4331 25.7083 12.2933ZM19.0008 12.0008C18.7356 12.0008 18.4812 12.1061 18.2937 12.2937C18.1061 12.4812 18.0008 12.7356 18.0008 13.0008V24.0008H8.00079V13.0008C8.00079 12.7356 7.89543 12.4812 7.70789 12.2937C7.52036 12.1061 7.266 12.0008 7.00079 12.0008H3.41454L13.0008 2.41454L22.587 12.0008H19.0008Z" fill="#7DC9AB"/>
</svg>
